<svg width="706" height="706" fill="none" xmlns="http://www.w3.org/2000/svg">
  <path fill="#1E1E1E" d="M0 0h706v706H0z"/>
  <path fill="#fff" d="M0 0h706v706H0z"/>
  <g filter="url(#a)">
    <mask id="b" fill="#fff">
      <path d="m492.5 164.5-141-23.5-69 11.75-69 11.75v32l98.5 45 39.5-39.5 41 39.5 100-45v-32Z"/>
      <path fill-rule="evenodd" clip-rule="evenodd" d="m669 237.5-186.5 85-131 34.5-128-34.5-188.5-85-9 13 93.5 40.117C91.1667 324.411 57.7 401.6 150.5 440c4 51.2 46.333 83.667 67 93.5 13.774 5.561 37.439 13.871 63 20.427-14.4-15.259-12.667-55.643-10-73.927-7.167 1.667-27.1 1.3-49.5-13.5-28-18.5-32.5-29.5-44-67-9.2-30 9.5-62.575 20-75.113L251.5 349l50 11.5 50 11.5 105-23 52.039-24.613C517.526 333.591 534.5 359.8 530.5 391c-5 39-26 62-43.5 75.5S436 480 433 480c-.567 0-.163.833.656 2.525 3.519 7.268 14.709 30.38-10.311 71.402 14.361-3.251 26.107-6.6 33.155-8.927 19.5-4.333 63.6-21.8 84-57 7.784-13.431 11.787-30.54 13.466-48 95.172-38.4 60.59-115.589 31.402-149.383L679.5 250.5l-10.5-13Zm-507.5 71.137L174 314c-7.596 16.526-20.628 54.45-23.5 95.162-42.4-49.87-10.333-87.796 11-100.525Zm369 5.363c7.6 2.8 16.167 36.167 19.5 52.5 2.088 10.112 4.211 25.53 4.799 42.662 41.439-50.27 9.457-87.963-11.715-100.525L530.5 314Z"/>
      <path d="M213.5 208.5 35 237.5l188.5 85 128 34.5 131-34.5 186.5-85-176.5-29c-26.561 26.156-86.544 62.303-141 63.5-44.321.974-127.895-45.085-138-63.5Z"/>
      <path d="m456.5 349-105 23-50-11.5-50-11.5-54.5-24.613c-10.5 12.538-29.2 45.113-20 75.113 11.5 37.5 16 48.5 44 67 22.4 14.8 42.333 15.167 49.5 13.5-2.667 18.284-4.4 58.668 10 73.927 24.233 6.214 50.171 10.852 71 10.073 25.227-.943 51.23-5.407 71.845-10.073 25.02-41.022 13.83-64.134 10.311-71.402-.819-1.692-1.223-2.525-.656-2.525 3 0 36.5 0 54-13.5s38.5-36.5 43.5-75.5c4-31.2-12.974-57.409-21.961-66.613L456.5 349ZM174 314l-12.5-5.363c-21.333 12.729-53.4 50.655-11 100.525 2.872-40.712 15.904-78.636 23.5-95.162ZM213.5 208.5c10.105 18.415 93.679 64.474 138 63.5 54.456-1.197 114.439-37.344 141-63.5v-12l-100 45-41-39.5-39.5 39.5-98.5-45v12ZM530.5 314c7.6 2.8 16.167 36.167 19.5 52.5 2.088 10.112 4.211 25.53 4.799 42.662 41.439-50.27 9.457-87.963-11.715-100.525L530.5 314Z"/>
    </mask>
    <path d="m492.5 164.5-141-23.5-69 11.75-69 11.75v32l98.5 45 39.5-39.5 41 39.5 100-45v-32Z" fill="#7F7F7F"/>
    <path d="m492.5 164.5-141-23.5-69 11.75-69 11.75v32l98.5 45 39.5-39.5 41 39.5 100-45v-32Z" fill="#fff"/>
    <path fill-rule="evenodd" clip-rule="evenodd" d="m669 237.5-186.5 85-131 34.5-128-34.5-188.5-85-9 13 93.5 40.117C91.1667 324.411 57.7 401.6 150.5 440c4 51.2 46.333 83.667 67 93.5 13.774 5.561 37.439 13.871 63 20.427-14.4-15.259-12.667-55.643-10-73.927-7.167 1.667-27.1 1.3-49.5-13.5-28-18.5-32.5-29.5-44-67-9.2-30 9.5-62.575 20-75.113L251.5 349l50 11.5 50 11.5 105-23 52.039-24.613C517.526 333.591 534.5 359.8 530.5 391c-5 39-26 62-43.5 75.5S436 480 433 480c-.567 0-.163.833.656 2.525 3.519 7.268 14.709 30.38-10.311 71.402 14.361-3.251 26.107-6.6 33.155-8.927 19.5-4.333 63.6-21.8 84-57 7.784-13.431 11.787-30.54 13.466-48 95.172-38.4 60.59-115.589 31.402-149.383L679.5 250.5l-10.5-13Zm-507.5 71.137L174 314c-7.596 16.526-20.628 54.45-23.5 95.162-42.4-49.87-10.333-87.796 11-100.525Zm369 5.363c7.6 2.8 16.167 36.167 19.5 52.5 2.088 10.112 4.211 25.53 4.799 42.662 41.439-50.27 9.457-87.963-11.715-100.525L530.5 314Z" fill="#7F7F7F"/>
    <path d="M213.5 208.5 35 237.5l188.5 85 128 34.5 131-34.5 186.5-85-176.5-29c-26.561 26.156-86.544 62.303-141 63.5-44.321.974-127.895-45.085-138-63.5Z" fill="#7F7F7F"/>
    <path d="M213.5 208.5 35 237.5l188.5 85 128 34.5 131-34.5 186.5-85-176.5-29c-26.561 26.156-86.544 62.303-141 63.5-44.321.974-127.895-45.085-138-63.5Z" fill="#fff"/>
    <path d="m456.5 349-105 23-50-11.5-50-11.5-54.5-24.613c-10.5 12.538-29.2 45.113-20 75.113 11.5 37.5 16 48.5 44 67 22.4 14.8 42.333 15.167 49.5 13.5-2.667 18.284-4.4 58.668 10 73.927 24.233 6.214 50.171 10.852 71 10.073 25.227-.943 51.23-5.407 71.845-10.073 25.02-41.022 13.83-64.134 10.311-71.402-.819-1.692-1.223-2.525-.656-2.525 3 0 36.5 0 54-13.5s38.5-36.5 43.5-75.5c4-31.2-12.974-57.409-21.961-66.613L456.5 349Z" fill="#7F7F7F"/>
    <path d="m456.5 349-105 23-50-11.5-50-11.5-54.5-24.613c-10.5 12.538-29.2 45.113-20 75.113 11.5 37.5 16 48.5 44 67 22.4 14.8 42.333 15.167 49.5 13.5-2.667 18.284-4.4 58.668 10 73.927 24.233 6.214 50.171 10.852 71 10.073 25.227-.943 51.23-5.407 71.845-10.073 25.02-41.022 13.83-64.134 10.311-71.402-.819-1.692-1.223-2.525-.656-2.525 3 0 36.5 0 54-13.5s38.5-36.5 43.5-75.5c4-31.2-12.974-57.409-21.961-66.613L456.5 349Z" fill="#fff" fill-opacity=".5"/>
    <path d="m174 314-12.5-5.363c-21.333 12.729-53.4 50.655-11 100.525 2.872-40.712 15.904-78.636 23.5-95.162Z" fill="#7F7F7F"/>
    <path d="m174 314-12.5-5.363c-21.333 12.729-53.4 50.655-11 100.525 2.872-40.712 15.904-78.636 23.5-95.162Z" fill="#fff" fill-opacity=".5"/>
    <path d="M213.5 208.5c10.105 18.415 93.679 64.474 138 63.5 54.456-1.197 114.439-37.344 141-63.5v-12l-100 45-41-39.5-39.5 39.5-98.5-45v12Z" fill="#7F7F7F"/>
    <path d="M213.5 208.5c10.105 18.415 93.679 64.474 138 63.5 54.456-1.197 114.439-37.344 141-63.5v-12l-100 45-41-39.5-39.5 39.5-98.5-45v12Z" fill="#AAA"/>
    <path d="M530.5 314c7.6 2.8 16.167 36.167 19.5 52.5 2.088 10.112 4.211 25.53 4.799 42.662 41.439-50.27 9.457-87.963-11.715-100.525L530.5 314Z" fill="#7F7F7F"/>
    <path d="M530.5 314c7.6 2.8 16.167 36.167 19.5 52.5 2.088 10.112 4.211 25.53 4.799 42.662 41.439-50.27 9.457-87.963-11.715-100.525L530.5 314Z" fill="#fff" fill-opacity=".5"/>
    <path d="m351.5 372-.112.487.109.025.11-.024-.107-.488Zm-100-23-.206.456.045.02.049.011.112-.487Zm205 0 .107.488.055-.012.052-.024-.214-.452Zm-105-77-.011-.5.011.5Zm179 42-.196-.46-.009.004-.009.004.214.452ZM174 314l.206-.456-.009-.003L174 314Zm177.5 43-.13.483.129.034.128-.033-.127-.484Zm-128-34.5-.206.456.037.016.039.011.13-.483Zm259 0 .127.484.042-.011.038-.018-.207-.455Zm-170.5-81-.208.455.316.144.246-.245-.354-.354Zm39.5-39.5.347-.36-.354-.341-.347.347.354.354Zm41 39.5-.347.36.244.235.308-.139-.205-.456Zm157.5 125-.49.1v.001l.49-.101Zm-388.5-57.863.197-.46-.197.46Zm-11 100.525.499.036-.499-.036ZM177 399.5l-.478.147.478-.147Zm44 67 .276-.417-.276.417Zm49.5 13.5.495.072.106-.725-.714.166.113.487Zm238.039-155.613-.214-.452.214.452ZM530.5 391l.496.064-.496-.064Zm-96.844 91.525.45-.218-.45.218Zm-82.049-110.037 105-23-.214-.976-105 23 .214.976ZM213.062 208.741c1.303 2.375 3.764 5.154 7.116 8.185 3.359 3.039 7.644 6.358 12.63 9.813 9.973 6.908 22.773 14.374 36.64 21.23 27.707 13.7 59.774 25.021 82.063 24.531l-.022-1c-22.031.484-53.912-10.737-81.598-24.427-13.831-6.839-26.588-14.28-36.513-21.156-4.963-3.439-9.211-6.731-12.529-9.732-3.326-3.008-5.688-5.697-6.911-7.926l-.876.482ZM351.511 272.5c27.327-.601 56.01-9.967 81.172-22.442 25.162-12.476 46.844-28.081 60.168-41.202l-.702-.712c-13.237 13.035-34.827 28.581-59.91 41.018-25.085 12.436-53.62 21.742-80.75 22.338l.022 1ZM34.7945 237.956l188.4995 85 .412-.912-188.5005-85-.411.912ZM223.37 322.983l128 34.5.26-.966-128-34.5-.26.966Zm128.257 34.501 131-34.5-.254-.968-131 34.5.254.968Zm131.08-34.529 186.5-85-.414-.91-186.5 85 .414.91Zm-269.415-126 98.5 45 .416-.91-98.5-45-.416.91Zm99.062 44.899 39.5-39.5-.708-.708-39.5 39.5.708.708Zm38.799-39.494 41 39.5.694-.72-41-39.5-.694.72Zm41.552 39.596 100-45-.41-.912-100 45 .41.912ZM550.49 366.4c-1.669-8.179-4.649-20.623-8.165-31.38-1.757-5.377-3.654-10.349-5.595-14.159-.97-1.905-1.959-3.535-2.956-4.783-.99-1.24-2.025-2.151-3.101-2.547l-.346.938c.824.304 1.72 1.048 2.666 2.233.939 1.176 1.892 2.74 2.846 4.612 1.907 3.744 3.785 8.66 5.536 14.016 3.5 10.71 6.471 23.115 8.135 31.27l.98-.2Zm-389.187-57.304 12.5 5.363.394-.918-12.5-5.364-.394.919Zm12.243 4.695c-7.617 16.569-20.668 54.553-23.545 95.336l.998.071c2.867-40.642 15.879-78.507 23.455-94.989l-.908-.418Zm-23.545 95.336c-.721 10.223-.803 20.625.001 30.912l.996-.078c-.799-10.231-.717-20.582.001-30.763l-.998-.071Zm11.243-100.92c-10.74 6.409-24.192 19.16-29.621 36.616-5.443 17.497-2.796 39.62 18.496 64.663l.762-.647c-21.108-24.827-23.628-46.602-18.304-63.719 5.337-17.156 18.586-29.733 29.179-36.054l-.512-.859Zm-41.941-17.131 42 18.02.394-.919-42-18.02-.394.919Zm411.393 23.384 12.585-5.363-.393-.92-12.584 5.363.392.92Zm24.603 94.685c-.589-17.16-2.716-32.606-4.809-42.746l-.98.202c2.082 10.084 4.202 25.474 4.789 42.579l1-.035Zm-12.47-100.078c10.512 6.237 23.699 18.714 29.115 35.843 5.403 17.091 3.099 38.908-17.531 63.934l.772.636c20.809-25.244 23.233-47.408 17.712-64.871-5.509-17.426-18.898-30.077-29.557-36.402l-.511.86Zm.452.03 42.283-18.02-.392-.92-42.284 18.02.393.92Zm11.182 130.951c1.001-10.414 1.177-20.949.836-30.903l-1 .035c.34 9.919.165 20.409-.831 30.772l.995.096Zm-303.075-90.561 50 11.5.224-.974-50-11.5-.224.974Zm50 11.5 50 11.5.224-.974-50-11.5-.224.974Zm-127.594-46.531 23 10.387.412-.912-23-10.387-.412.912Zm23 10.387 54.5 24.613.412-.912-54.5-24.613-.412.912Zm-.177-.777c-5.285 6.31-12.616 17.639-17.475 31.16-4.859 13.52-7.263 29.281-2.62 44.421l.956-.294c-4.557-14.86-2.211-30.386 2.605-43.789 4.816-13.401 12.085-24.628 17.3-30.856l-.766-.642Zm-20.095 75.581c5.746 18.736 9.763 30.927 15.866 40.742 6.116 9.837 14.308 17.26 28.336 26.528l.552-.834c-13.972-9.232-22.03-16.559-28.039-26.222-6.022-9.685-10.005-21.744-15.759-40.508l-.956.294Zm44.202 67.27c22.503 14.868 42.575 15.271 49.889 13.57l-.226-.974c-7.02 1.632-26.814 1.302-49.111-13.43l-.552.834Zm49.281 13.011c-1.337 9.17-2.44 23.874-1.404 38.206.519 7.167 1.573 14.254 3.407 20.516 1.832 6.258 4.453 11.726 8.128 15.62l.728-.686c-3.525-3.736-6.088-9.038-7.897-15.215-1.807-6.172-2.853-13.185-3.368-20.307-1.031-14.246.067-28.876 1.396-37.99l-.99-.144Zm186.709-130.476 52.038-24.613-.427-.904-52.039 24.613.428.904Zm52.038-24.613 21.962-10.387-.428-.904-21.961 10.387.427.904Zm-.571-.103c8.922 9.138 25.797 35.202 21.823 66.2l.992.128c4.026-31.402-13.047-57.755-22.1-67.026l-.715.698Zm21.823 66.2c-4.978 38.829-25.878 61.721-43.309 75.168l.61.792c17.569-13.553 38.669-36.661 43.691-75.832l-.992-.128Zm-43.309 75.168c-8.646 6.67-21.291 10.03-32.209 11.714-10.9 1.682-19.995 1.682-21.486 1.682v1c1.509 0 10.664 0 21.639-1.693 10.957-1.691 23.812-5.081 32.666-11.911l-.61-.792Zm-62.923 88.083c12.55-20.577 16.042-36.701 15.931-48.624-.111-11.924-3.827-19.599-5.597-23.256l-.9.436c1.748 3.611 5.388 11.126 5.497 22.83.109 11.706-3.315 27.649-15.784 48.093l.853.521Zm10.334-71.88c-.418-.864-.702-1.454-.821-1.829-.065-.208-.041-.238-.055-.187-.014.051-.054.123-.132.172-.066.041-.114.037-.098.037v-1c-.126 0-.285.022-.434.115-.161.102-.256.252-.299.408-.073.259-.002.543.064.755.147.464.474 1.137.875 1.965l.9-.436ZM213.5 164.5l-.168-.986-.832.142v.844h1Zm0 44 .16.987.84-.136v-.851h-1ZM35 237.5l-.1604-.987-.4197.068-.2421.35.8222.569Zm-9 13-.8222-.569-.6963 1.006 1.1242.482L26 250.5Zm653.5 0 .392.92 1.217-.519-.831-1.029-.778.628Zm-10.5-13 .778-.628-.24-.297-.376-.062-.162.987Zm-176.5-29h-1v.849l.838.138.162-.987Zm0-44h1v-.847l-.836-.139-.164.986Zm-141-23.5.164-.986-.166-.028-.166.028.168.986Zm-201 299 .997-.078-.048-.611-.567-.235-.382.924Zm67 93.5-.43.903.028.013.028.011.374-.927Zm134 30.5-.037-.999.037.999Zm105-19-.217-.976-.049.011-.047.015.313.95Zm84-57-.865-.501.865.501Zm-421-197.383.766.642.865-1.031-1.237-.53-.394.919Zm465.868 0-.392-.92-1.26.537.895 1.036.757-.653ZM553.966 440l-.375-.927-.563.227-.058.604.996.096ZM280.5 553.927l.248-.969-.248.969Zm142.845 0 .221.975-.221-.975ZM213.34 207.513l-178.5004 29 .3208 1.974 178.4996-29-.32-1.974ZM34.1778 236.931l-9 13 1.6444 1.138 9-13-1.6444-1.138Zm646.1002 12.941-10.5-13-1.556 1.256 10.5 13 1.556-1.256Zm-11.116-13.359-176.5-29-.324 1.974 176.5 29 .324-1.974Zm-176.498-72.999-141-23.5-.328 1.972 141 23.5.328-1.972Zm-141.332-23.5-69 11.75.336 1.972 69-11.75-.336-1.972Zm-69 11.75-69 11.75.336 1.972 69-11.75-.336-1.972ZM212.5 164.5v32h2v-32h-2Zm0 32v12h2v-12h-2Zm281 12v-12h-2v12h2Zm0-12v-32h-2v32h2ZM149.503 440.078c2.021 25.866 13.724 46.978 27.492 62.84 13.761 15.854 29.623 26.512 40.075 31.485l.86-1.806c-10.215-4.86-25.852-15.353-39.425-30.99-13.566-15.63-25.029-36.351-27.008-61.685l-1.994.156Zm307.214 105.898c9.848-2.188 25.844-7.675 41.948-17.036 16.101-9.36 32.383-22.637 42.7-40.439l-1.73-1.002c-10.083 17.398-26.051 30.455-41.975 39.711-15.921 9.256-31.725 14.669-41.377 16.814l.434 1.952ZM25.6057 251.419l93.5003 40.117.788-1.838-93.4997-40.117-.7886 1.838Zm93.1283 38.555c-14.247 16.992-29.8471 44.955-30.1589 73.596-.1562 14.348 3.5261 28.867 13.1349 42.225 9.604 13.351 25.08 25.476 48.408 35.129l.764-1.848c-23.072-9.547-38.212-21.47-47.548-34.449-9.3311-12.971-12.9112-27.061-12.7591-41.035.3049-28.002 15.6041-55.531 29.6911-72.333l-1.532-1.285Zm467.026 1.563 94.132-40.117-.784-1.84-94.132 40.117.784 1.84Zm-44.395 196.964c7.885-13.605 11.911-30.875 13.596-48.405l-1.991-.192c-1.672 17.391-5.653 34.339-13.335 47.595l1.73 1.002Zm43.246-197.231c14.514 16.805 30.298 44.331 30.691 72.325.196 13.968-3.438 28.054-12.98 41.024-9.549 12.978-25.062 24.904-48.731 34.454l.749 1.854c23.917-9.65 39.771-21.773 49.593-35.123 9.829-13.359 13.57-27.883 13.369-42.237-.402-28.649-16.503-56.614-31.177-73.604l-1.514 1.307ZM217.126 534.427c13.812 5.577 37.518 13.901 63.126 20.468l.496-1.937c-25.514-6.543-49.137-14.839-62.874-20.385l-.748 1.854Zm63.126 20.468c24.26 6.222 50.31 10.888 71.285 10.104l-.074-1.998c-20.684.773-46.509-3.835-70.715-10.043l-.496 1.937Zm71.285 10.104c25.31-.946 51.379-5.422 72.029-10.097l-.441-1.951c-20.58 4.659-46.518 9.11-71.662 10.05l.074 1.998Zm72.029-10.097c14.387-3.257 26.164-6.614 33.247-8.952l-.626-1.9c-7.014 2.315-18.728 5.657-33.062 8.901l.441 1.951Z" fill="#000" mask="url(#b)"/>
  </g>
  <defs>
    <filter id="a" x="22" y="141" width="661.5" height="431.085" filterUnits="userSpaceOnUse" color-interpolation-filters="sRGB">
      <feFlood flood-opacity="0" result="BackgroundImageFix"/>
      <feColorMatrix in="SourceAlpha" values="0 0 0 0 0 0 0 0 0 0 0 0 0 0 0 0 0 0 127 0" result="hardAlpha"/>
      <feOffset dy="4"/>
      <feGaussianBlur stdDeviation="2"/>
      <feComposite in2="hardAlpha" operator="out"/>
      <feColorMatrix values="0 0 0 0 1 0 0 0 0 1 0 0 0 0 1 0 0 0 0.25 0"/>
      <feBlend in2="BackgroundImageFix" result="effect1_dropShadow_0_1"/>
      <feBlend in="SourceGraphic" in2="effect1_dropShadow_0_1" result="shape"/>
    </filter>
  </defs>
</svg>
